<svg xmlns="http://www.w3.org/2000/svg" width="257" height="257" viewBox="0 0 257 257" version="1.1"><path d="M 24 128.500 L 24 233 128.500 233 L 233 233 233 128.500 L 233 24 128.500 24 L 24 24 24 128.500 M 34 128.500 L 34 223 128.500 223 L 223 223 223 128.500 L 223 34 128.500 34 L 34 34 34 128.500 M 66 94 C 64.082 95.918, 64 97.333, 64 128.500 C 64 159.667, 64.082 161.082, 66 163 C 68.398 165.398, 71.746 165.567, 74.777 163.443 C 76.850 161.992, 77 161.128, 77 150.646 L 77 139.406 80.792 135.703 C 82.878 133.666, 84.869 132, 85.216 132 C 85.564 132, 91.726 139.168, 98.910 147.928 C 106.094 156.689, 112.911 164.154, 114.060 164.519 C 119.404 166.215, 124.578 160.598, 122.205 155.676 C 121.628 154.479, 115.244 146.750, 108.020 138.500 L 94.884 123.500 106.450 112.500 C 116.411 103.027, 118.015 101.066, 118.008 98.372 C 117.999 94.874, 116.762 93.480, 112.779 92.481 C 110.318 91.863, 108.556 93.237, 93.535 107.482 L 77 123.163 77 109.138 C 77 95.779, 76.895 95.040, 74.777 93.557 C 71.746 91.433, 68.398 91.602, 66 94 M 136 94 C 134.082 95.918, 134 97.333, 134 128.500 C 134 159.667, 134.082 161.082, 136 163 C 138.398 165.398, 141.746 165.567, 144.777 163.443 C 146.900 161.957, 147 161.235, 147 147.443 L 147 133 163.500 133 L 180 133 180 147.443 C 180 161.235, 180.100 161.957, 182.223 163.443 C 185.254 165.567, 188.602 165.398, 191 163 C 192.918 161.082, 193 159.667, 193 128.500 C 193 97.333, 192.918 95.918, 191 94 C 188.602 91.602, 185.254 91.433, 182.223 93.557 C 180.120 95.029, 180 95.815, 180 108.057 L 180 121 163.500 121 L 147 121 147 108.057 C 147 95.815, 146.880 95.029, 144.777 93.557 C 141.746 91.433, 138.398 91.602, 136 94" stroke="none" fill="#fafafa" fill-rule="evenodd"/><path d="M 0 128.504 L 0 257.008 128.750 256.754 L 257.500 256.500 257.754 128.250 L 258.008 -0 129.004 -0 L 0 0 0 128.504 M 0.485 129 C 0.485 199.675, 0.604 228.587, 0.750 193.250 C 0.896 157.912, 0.896 100.087, 0.750 64.750 C 0.604 29.412, 0.485 58.325, 0.485 129 M 24 128.500 L 24 233 128.500 233 L 233 233 233 128.500 L 233 24 128.500 24 L 24 24 24 128.500 M 34 128.500 L 34 223 128.500 223 L 223 223 223 128.500 L 223 34 128.500 34 L 34 34 34 128.500 M 66 94 C 64.082 95.918, 64 97.333, 64 128.500 C 64 159.667, 64.082 161.082, 66 163 C 68.398 165.398, 71.746 165.567, 74.777 163.443 C 76.850 161.992, 77 161.128, 77 150.646 L 77 139.406 80.792 135.703 C 82.878 133.666, 84.869 132, 85.216 132 C 85.564 132, 91.726 139.168, 98.910 147.928 C 106.094 156.689, 112.911 164.154, 114.060 164.519 C 119.404 166.215, 124.578 160.598, 122.205 155.676 C 121.628 154.479, 115.244 146.750, 108.020 138.500 L 94.884 123.500 106.450 112.500 C 116.411 103.027, 118.015 101.066, 118.008 98.372 C 117.999 94.874, 116.762 93.480, 112.779 92.481 C 110.318 91.863, 108.556 93.237, 93.535 107.482 L 77 123.163 77 109.138 C 77 95.779, 76.895 95.040, 74.777 93.557 C 71.746 91.433, 68.398 91.602, 66 94 M 136 94 C 134.082 95.918, 134 97.333, 134 128.500 C 134 159.667, 134.082 161.082, 136 163 C 138.398 165.398, 141.746 165.567, 144.777 163.443 C 146.900 161.957, 147 161.235, 147 147.443 L 147 133 163.500 133 L 180 133 180 147.443 C 180 161.235, 180.100 161.957, 182.223 163.443 C 185.254 165.567, 188.602 165.398, 191 163 C 192.918 161.082, 193 159.667, 193 128.500 C 193 97.333, 192.918 95.918, 191 94 C 188.602 91.602, 185.254 91.433, 182.223 93.557 C 180.120 95.029, 180 95.815, 180 108.057 L 180 121 163.500 121 L 147 121 147 108.057 C 147 95.815, 146.880 95.029, 144.777 93.557 C 141.746 91.433, 138.398 91.602, 136 94" stroke="none" fill="#040404" fill-rule="evenodd"/></svg>